<svg xmlns="http://www.w3.org/2000/svg" width="480" height="400" viewBox="0 0 480 400"><circle cx="240" cy="190" r="155" fill="#e5f5ed"/><g stroke="#246c55" stroke-width="5" stroke-linejoin="round"><path d="M73 122v110c0 30 94 30 94 0V122" fill="#bce4d2"/><ellipse cx="120" cy="122" rx="47" ry="18" fill="#e0f3e9"/><path d="M73 160c0 25 94 25 94 0M73 196c0 25 94 25 94 0" fill="none"/><rect x="148" y="151" width="226" height="143" rx="12" fill="#fff"/><rect x="163" y="166" width="196" height="110" rx="5" fill="#234c3e"/><path d="m215 206-23 17 23 17m91-34 23 17-23 17m-38-25-14 50" stroke="#c7ebd9" fill="none"/><path d="m148 294-33 28h292l-33-28" fill="#c8e9da"/><path d="M352 79v34m-17-17h34" stroke-linecap="round"/></g></svg>